# xmcd CD database file
#
# Track frame offsets:
#	150
#	19522
#	39910
#	66125
#	88465
#	116505
#	127810
#	138582
#	148097
#	156155
#	171347
#	201512
#	223220
#	245572
#	261582
#	275377
#
# Disc length: 4113 seconds
#
# Revision: 3
# Processed by: cddbd v1.5.2PL0 Copyright (c) Steve Scherf et al.
# Submitted via: CDex 1.51
#
DISCID=fb100f10
DTITLE=Stan Getz, Cannonball Adderley, Shorty Rogers a.o. - Vol. 139 - Chega De Saudade
DYEAR=1993
DGENRE=Jazz
TTITLE0=Chega De Saudade (No More Blues) - Getz, Stan and the Gary McFarland Orchestra
TTITLE1=Bim Bom - Getz, Stan and the Gary McFarland Orchestra
TTITLE2=Manha De Carnaval (Morning of the Carnival) - Getz, Stan and the Gary McFarland Orchestra
TTITLE3=Noite Triste (Night Sadness) - Getz, Stan and the Gary McFarland Orchestra
TTITLE4=Samba De Uma Nota So (One Note Samba) - Getz, Stan and Charlie Byrd
TTITLE5=So Voce (Only You) - Rogers, Shorty and his Orchestra with Laurindo Almeida
TTITLE6=O Menino Desce Do Morro (Little Brown Boy) - Rogers, Shorty and his Orchestra with Laurindo Almeida
TTITLE7=Samba Do Lorinho - Rogers, Shorty and his Orchestra with Laurindo Almeida
TTITLE8=So Um Amor (Only One Love) - Rogers, Shorty and his Orchestra with Laurindo Almeida
TTITLE9=Chora Tua Tristeza (Cry Your Sadness) - Rogers, Shorty and his Orchestra with Laurindo Almeida
TTITLE10=Corcovado (Quiet Nights of Quiet Stars) - Adderley, Cannonball with Sergio Mendes and Bud Shank
TTITLE11=Clouds - Adderley, Cannonball with Sergio Mendes and Bud Shank
TTITLE12=Groovy Samba - Adderley, Cannonball with Sergio Mendes and Bud Shank
TTITLE13=Sambop - Adderley, Cannonball with Sergio Mendes and Bud Shank
TTITLE14=O Amore E A Rosa (Love Is A Rose) - Rogers, Shorty and his Orchestra with Laurindo Almeida
TTITLE15=Bossa Nova U.S.A. - Brubeck, Dave and Paul Desmond
EXTD=YEAR: 1993
EXTT0=A. Jobim, V. De Morales\n
EXTT1=J. Gilberto\n
EXTT2=L. Bonfa\n
EXTT3=G. McFarland\n
EXTT4=A.C. Jobim - N. Mendonca\n
EXTT5=L. Almeida - S. Rogers\n
EXTT6=Vera Brasil\n
EXTT7=S. Rogers\n
EXTT8=L. Almeida\n
EXTT9=Castro - Neves - Ferini\n
EXTT10=A. C. Jobim\n
EXTT11=D. Ferreira\n
EXTT12=Sergio Mendes\n
EXTT13=D. Ferreira\n
EXTT14=
EXTT15=D. Brubeck\n
PLAYORDER=
